<?xml version="1.0" encoding="UTF-8" standalone="no"?>
<!DOCTYPE svg PUBLIC "-//W3C//DTD SVG 1.1//EN" "http://www.w3.org/Graphics/SVG/1.1/DTD/svg11.dtd">
<svg version="1.1" xmlns="http://www.w3.org/2000/svg" xmlns:xlink="http://www.w3.org/1999/xlink" preserveAspectRatio="xMidYMid meet" viewBox="0 0 1200 800" width="1200" height="800"><defs><path d="M353.16 96.35C364.83 96.35 374.29 105.81 374.29 117.48C374.29 225.77 374.29 529.51 374.29 637.8C374.29 649.47 364.83 658.93 353.16 658.93C284.13 658.93 98.19 658.93 29.16 658.93C17.49 658.93 8.03 649.47 8.03 637.8C8.03 529.51 8.03 225.77 8.03 117.48C8.03 105.81 17.49 96.35 29.16 96.35C98.19 96.35 284.13 96.35 353.16 96.35Z" id="b3VccZ6Pvo"></path><path d="M560.19 481.2L700.05 377.64L560.19 274.08L560.19 339.73L411.86 339.73L411.86 415.72L560.19 415.72L560.19 481.2Z" id="eTcvSn93B"></path><path d="M36.73 134.04L338.48 134.04L338.48 174.45L36.73 174.45L36.73 134.04Z" id="bVnX2fLt"></path><path d="M36.73 194.66L277.46 194.66L277.46 235.07L36.73 235.07L36.73 194.66Z" id="bfKot8b7L"></path><path d="M36.73 411.89L277.46 411.89L277.46 452.31L36.73 452.31L36.73 411.89Z" id="d249dJPG9X"></path><path d="M36.73 481.2L338.48 481.2L338.48 521.62L36.73 521.62L36.73 481.2Z" id="a1wqZvAMBn"></path><path d="M36.73 548.29L338.48 548.29L338.48 588.71L36.73 588.71L36.73 548.29Z" id="c14RyCbV9u"></path><path d="M36.73 274.08L173.2 274.08L173.2 373.53L36.73 373.53L36.73 274.08Z" id="g1Oo4rkES5"></path><path d="M202.02 274.08L338.48 274.08L338.48 373.53L202.02 373.53L202.02 274.08Z" id="c1YJIBNzd"></path><path d="M1069.43 96.35C1081.1 96.35 1090.56 105.81 1090.56 117.48C1090.56 225.77 1090.56 529.51 1090.56 637.8C1090.56 649.47 1081.1 658.93 1069.43 658.93C1000.41 658.93 814.46 658.93 745.43 658.93C733.76 658.93 724.3 649.47 724.3 637.8C724.3 529.51 724.3 225.77 724.3 117.48C724.3 105.81 733.76 96.35 745.43 96.35C814.46 96.35 1000.41 96.35 1069.43 96.35Z" id="lant1Hyw"></path><path d="M753.01 134.04L1054.76 134.04L1054.76 174.45L753.01 174.45L753.01 134.04Z" id="foXnTIsg0"></path><path d="M753.01 194.66L993.73 194.66L993.73 235.07L753.01 235.07L753.01 194.66Z" id="dmDkTQF8x"></path><path d="M753.01 411.89L993.73 411.89L993.73 452.31L753.01 452.31L753.01 411.89Z" id="b4nX608Jy5"></path><path d="M753.01 481.2L1054.76 481.2L1054.76 521.62L753.01 521.62L753.01 481.2Z" id="aME1WXcvN"></path><path d="M753.01 548.29L1054.76 548.29L1054.76 588.71L753.01 588.71L753.01 548.29Z" id="b1gNcplq1L"></path><path d="M753.01 274.08L903.89 274.08L903.89 373.53L753.01 373.53L753.01 274.08Z" id="aSWNBQpwB"></path><path d="M918.29 274.08L1054.76 274.08L1054.76 373.53L918.29 373.53L918.29 274.08Z" id="a7nPSFNzO"></path></defs><g><g><g><use xlink:href="#b3VccZ6Pvo" opacity="1" fill="#bce7c8" fill-opacity="1"></use><g><use xlink:href="#b3VccZ6Pvo" opacity="1" fill-opacity="0" stroke="#000000" stroke-width="2" stroke-opacity="1"></use></g></g><g><g><filter id="shadow5037439" x="396.86" y="259.08" width="322.19" height="241.13" filterUnits="userSpaceOnUse" primitiveUnits="userSpaceOnUse"><feFlood></feFlood><feComposite in2="SourceAlpha" operator="in"></feComposite><feGaussianBlur stdDeviation="1.41"></feGaussianBlur><feOffset dx="-4" dy="4" result="afterOffset"></feOffset><feFlood flood-color="#000000" flood-opacity="0.79"></feFlood><feComposite in2="afterOffset" operator="in"></feComposite><feMorphology operator="dilate" radius="2"></feMorphology><feComposite in2="SourceAlpha" operator="out"></feComposite></filter><path d="M560.19 481.2L700.05 377.64L560.19 274.08L560.19 339.73L411.86 339.73L411.86 415.72L560.19 415.72L560.19 481.2Z" id="a5zuB2InKf" fill="white" fill-opacity="1" filter="url(#shadow5037439)"></path></g><use xlink:href="#eTcvSn93B" opacity="0.67" fill="#f02800" fill-opacity="1"></use></g><g><use xlink:href="#bVnX2fLt" opacity="1" fill="#528986" fill-opacity="1"></use></g><g><use xlink:href="#bfKot8b7L" opacity="1" fill="#528986" fill-opacity="1"></use></g><g><use xlink:href="#d249dJPG9X" opacity="1" fill="#528986" fill-opacity="1"></use></g><g><use xlink:href="#a1wqZvAMBn" opacity="1" fill="#528986" fill-opacity="1"></use></g><g><use xlink:href="#c14RyCbV9u" opacity="1" fill="#528986" fill-opacity="1"></use></g><g><use xlink:href="#g1Oo4rkES5" opacity="1" fill="#2d4a4a" fill-opacity="1"></use></g><g><use xlink:href="#c1YJIBNzd" opacity="1" fill="#2d4a4a" fill-opacity="1"></use></g><g><use xlink:href="#lant1Hyw" opacity="1" fill="#bce7c8" fill-opacity="1"></use><g><use xlink:href="#lant1Hyw" opacity="1" fill-opacity="0" stroke="#000000" stroke-width="2" stroke-opacity="1"></use></g></g><g><use xlink:href="#foXnTIsg0" opacity="1" fill="#528986" fill-opacity="1"></use></g><g><use xlink:href="#dmDkTQF8x" opacity="1" fill="#528986" fill-opacity="1"></use></g><g><use xlink:href="#b4nX608Jy5" opacity="1" fill="#c9d202" fill-opacity="1"></use><g><use xlink:href="#b4nX608Jy5" opacity="1" fill-opacity="0" stroke="#ff0000" stroke-width="2" stroke-opacity="1"></use></g></g><g><use xlink:href="#aME1WXcvN" opacity="1" fill="#528986" fill-opacity="1"></use></g><g><use xlink:href="#b1gNcplq1L" opacity="1" fill="#528986" fill-opacity="1"></use></g><g><use xlink:href="#aSWNBQpwB" opacity="1" fill="#ddd92d" fill-opacity="1"></use><g><use xlink:href="#aSWNBQpwB" opacity="1" fill-opacity="0" stroke="#ff0000" stroke-width="2" stroke-opacity="1"></use></g></g><g><use xlink:href="#a7nPSFNzO" opacity="1" fill="#2d4a4a" fill-opacity="1"></use></g></g></g></svg>