<?xml version="1.0" encoding="UTF-8" standalone="no"?>
<!DOCTYPE svg PUBLIC "-//W3C//DTD SVG 1.1//EN" "http://www.w3.org/Graphics/SVG/1.1/DTD/svg11.dtd">
<svg version="1.1" xmlns="http://www.w3.org/2000/svg" xmlns:xlink="http://www.w3.org/1999/xlink" preserveAspectRatio="xMidYMid meet" viewBox="0 0 1200 800" width="1200" height="800"><defs><path d="M639.36 279.46C639.36 343.53 587.35 395.54 523.29 395.54C459.23 395.54 407.22 343.53 407.22 279.46C407.22 215.4 459.23 163.39 523.29 163.39C587.35 163.39 639.36 215.4 639.36 279.46Z" id="ar7g1cKN"></path><path d="M552.13 142.94L438.27 287.08L489.04 306.65L407.22 410.91L608.11 300.3L535.58 272.35L631.91 173.68L552.13 142.94Z" id="c2hGPGemL1"></path><path d="" id="chtDYlCoB"></path><path d="" id="fxlfEjGjw"></path></defs><g><g><g><use xlink:href="#ar7g1cKN" opacity="1" fill="#fc2b2b" fill-opacity="1"></use><g><filter id="shadow10135738" x="376.22" y="132.39" width="294.14" height="294.14" filterUnits="userSpaceOnUse" primitiveUnits="userSpaceOnUse"><feFlood></feFlood><feComposite in2="SourceAlpha" operator="out"></feComposite><feGaussianBlur stdDeviation="3.32"></feGaussianBlur><feOffset dx="0" dy="0" result="afterOffset"></feOffset><feFlood flood-color="#000000" flood-opacity="0.8"></feFlood><feComposite in2="afterOffset" operator="in"></feComposite><feMorphology operator="dilate" radius="4"></feMorphology><feComposite in2="SourceAlpha" operator="in"></feComposite></filter><path d="M639.36 279.46C639.36 343.53 587.35 395.54 523.29 395.54C459.23 395.54 407.22 343.53 407.22 279.46C407.22 215.4 459.23 163.39 523.29 163.39C587.35 163.39 639.36 215.4 639.36 279.46Z" id="a2jx3zXk1S" fill="white" fill-opacity="1" filter="url(#shadow10135738)"></path></g></g><g><g><filter id="shadow1503319" x="382.22" y="117.94" width="274.69" height="321.97" filterUnits="userSpaceOnUse" primitiveUnits="userSpaceOnUse"><feFlood></feFlood><feComposite in2="SourceAlpha" operator="in"></feComposite><feGaussianBlur stdDeviation="2.65"></feGaussianBlur><feOffset dx="0" dy="4" result="afterOffset"></feOffset><feFlood flood-color="#030303" flood-opacity="0.5"></feFlood><feComposite in2="afterOffset" operator="in"></feComposite><feMorphology operator="dilate" radius="2"></feMorphology><feComposite in2="SourceAlpha" operator="out"></feComposite></filter><path d="M552.13 142.94L438.27 287.08L489.04 306.65L407.22 410.91L608.11 300.3L535.58 272.35L631.91 173.68L552.13 142.94Z" id="fqaXU3BT9" fill="white" fill-opacity="1" filter="url(#shadow1503319)"></path></g><use xlink:href="#c2hGPGemL1" opacity="1" fill="#ffde00" fill-opacity="1"></use><g><filter id="shadow10478690" x="341.22" y="76.94" width="363.69" height="399.97" filterUnits="userSpaceOnUse" primitiveUnits="userSpaceOnUse"><feFlood></feFlood><feComposite in2="SourceAlpha" operator="out"></feComposite><feGaussianBlur stdDeviation="4.9"></feGaussianBlur><feOffset dx="7" dy="0" result="afterOffset"></feOffset><feFlood flood-color="#f29510" flood-opacity="0.8"></feFlood><feComposite in2="afterOffset" operator="in"></feComposite><feMorphology operator="dilate" radius="6"></feMorphology><feComposite in2="SourceAlpha" operator="in"></feComposite></filter><path d="M552.13 142.94L438.27 287.08L489.04 306.65L407.22 410.91L608.11 300.3L535.58 272.35L631.91 173.68L552.13 142.94Z" id="e27UOQsWzd" fill="white" fill-opacity="1" filter="url(#shadow10478690)"></path></g></g><g><g><use xlink:href="#chtDYlCoB" opacity="1" fill-opacity="0" stroke="#000000" stroke-width="1" stroke-opacity="1"></use></g></g><g><g><use xlink:href="#fxlfEjGjw" opacity="1" fill-opacity="0" stroke="#f6e545" stroke-width="1" stroke-opacity="1"></use></g></g></g></g></svg>