<?xml version="1.0" encoding="UTF-8" standalone="no"?>
<!DOCTYPE svg PUBLIC "-//W3C//DTD SVG 1.1//EN" "http://www.w3.org/Graphics/SVG/1.1/DTD/svg11.dtd">
<svg version="1.1" xmlns="http://www.w3.org/2000/svg" xmlns:xlink="http://www.w3.org/1999/xlink" preserveAspectRatio="xMidYMid meet" viewBox="0 0 640 640" width="640" height="640"><defs><path d="M312.24 534.86C180.99 534.86 74.42 441.23 74.42 325.91C74.42 210.59 180.99 116.96 312.24 116.96C443.5 116.96 550.07 210.59 550.07 325.91C550.07 441.23 443.5 534.86 312.24 534.86Z" id="aACWg9k6E"></path><path d="M155.66 335.67L255.57 369.02L94.54 546.76L489.88 358.2L347.14 310.55L536.72 142.34L379.71 89.93L155.66 335.67Z" id="c4oGjzjiC3"></path><mask id="maska2o82ucVwX" x="82.54" y="77.93" width="466.18" height="480.83" maskUnits="userSpaceOnUse"><rect x="82.54" y="77.93" width="466.18" height="480.83" fill="white"></rect><use xlink:href="#c4oGjzjiC3" opacity="1" fill="black"></use></mask></defs><g><g><g><use xlink:href="#aACWg9k6E" opacity="1" fill="#528986" fill-opacity="1"></use><g><use xlink:href="#aACWg9k6E" opacity="1" fill-opacity="0" stroke="#2d4a4a" stroke-width="8" stroke-opacity="0.98"></use></g></g><g><g><filter id="shadow3064013" x="59.54" y="54.93" width="529.18" height="528.83" filterUnits="userSpaceOnUse" primitiveUnits="userSpaceOnUse"><feFlood></feFlood><feComposite in2="SourceAlpha" operator="in"></feComposite><feGaussianBlur stdDeviation="2.24"></feGaussianBlur><feOffset dx="-17" dy="2" result="afterOffset"></feOffset><feFlood flood-color="#000000" flood-opacity="0.68"></feFlood><feComposite in2="afterOffset" operator="in"></feComposite><feMorphology operator="dilate" radius="3"></feMorphology><feComposite in2="SourceAlpha" operator="out"></feComposite></filter><path d="M155.66 335.67L255.57 369.02L94.54 546.76L489.88 358.2L347.14 310.55L536.72 142.34L379.71 89.93L155.66 335.67Z" id="cayxPeRky" fill="white" fill-opacity="1" filter="url(#shadow3064013)"></path></g><use xlink:href="#c4oGjzjiC3" opacity="1" fill="#ffbd27" fill-opacity="1"></use><g mask="url(#maska2o82ucVwX)"><use xlink:href="#c4oGjzjiC3" opacity="1" fill-opacity="0" stroke="#d75757" stroke-width="12" stroke-opacity="0.98"></use></g></g></g></g></svg>