<?xml version="1.0" encoding="UTF-8" standalone="no"?>
<!DOCTYPE svg PUBLIC "-//W3C//DTD SVG 1.1//EN" "http://www.w3.org/Graphics/SVG/1.1/DTD/svg11.dtd">
<svg version="1.1" xmlns="http://www.w3.org/2000/svg" xmlns:xlink="http://www.w3.org/1999/xlink" preserveAspectRatio="xMidYMid meet" viewBox="0 0 1200 800" width="1200" height="800"><defs><path d="M1007.22 407.59C1007.22 598.83 819.78 754.1 588.91 754.1C358.05 754.1 170.61 598.83 170.61 407.59C170.61 216.34 358.05 61.07 588.91 61.07C819.78 61.07 1007.22 216.34 1007.22 407.59Z" id="aQZncf6y0"></path><path d="M692.84 0L282.53 430.33L465.5 488.74L170.61 800L894.59 469.79L633.2 386.35L980.37 91.78L692.84 0Z" id="aRHIBkB9W"></path><path d="" id="albUkOBDR"></path><path d="" id="b84UnaL9"></path></defs><g><g><g><use xlink:href="#aQZncf6y0" opacity="1" fill="#fc2b2b" fill-opacity="1"></use><g><filter id="shadow5361384" x="139.61" y="30.07" width="898.61" height="755.04" filterUnits="userSpaceOnUse" primitiveUnits="userSpaceOnUse"><feFlood></feFlood><feComposite in2="SourceAlpha" operator="out"></feComposite><feGaussianBlur stdDeviation="3.32"></feGaussianBlur><feOffset dx="0" dy="0" result="afterOffset"></feOffset><feFlood flood-color="#000000" flood-opacity="0.8"></feFlood><feComposite in2="afterOffset" operator="in"></feComposite><feMorphology operator="dilate" radius="4"></feMorphology><feComposite in2="SourceAlpha" operator="in"></feComposite></filter><path d="M1007.22 407.59C1007.22 598.83 819.78 754.1 588.91 754.1C358.05 754.1 170.61 598.83 170.61 407.59C170.61 216.34 358.05 61.07 588.91 61.07C819.78 61.07 1007.22 216.34 1007.22 407.59Z" id="cDB0s6cfQ" fill="white" fill-opacity="1" filter="url(#shadow5361384)"></path></g></g><g><g><filter id="shadow3804330" x="145.61" y="-25" width="859.76" height="854" filterUnits="userSpaceOnUse" primitiveUnits="userSpaceOnUse"><feFlood></feFlood><feComposite in2="SourceAlpha" operator="in"></feComposite><feGaussianBlur stdDeviation="2.65"></feGaussianBlur><feOffset dx="0" dy="4" result="afterOffset"></feOffset><feFlood flood-color="#030303" flood-opacity="0.5"></feFlood><feComposite in2="afterOffset" operator="in"></feComposite><feMorphology operator="dilate" radius="2"></feMorphology><feComposite in2="SourceAlpha" operator="out"></feComposite></filter><path d="M692.84 0L282.53 430.33L465.5 488.74L170.61 800L894.59 469.79L633.2 386.35L980.37 91.78L692.84 0Z" id="e1t1I3QM5n" fill="white" fill-opacity="1" filter="url(#shadow3804330)"></path></g><use xlink:href="#aRHIBkB9W" opacity="1" fill="#ffde00" fill-opacity="1"></use><g><filter id="shadow13196062" x="104.61" y="-66" width="948.76" height="932" filterUnits="userSpaceOnUse" primitiveUnits="userSpaceOnUse"><feFlood></feFlood><feComposite in2="SourceAlpha" operator="out"></feComposite><feGaussianBlur stdDeviation="4.9"></feGaussianBlur><feOffset dx="7" dy="0" result="afterOffset"></feOffset><feFlood flood-color="#f29510" flood-opacity="0.8"></feFlood><feComposite in2="afterOffset" operator="in"></feComposite><feMorphology operator="dilate" radius="6"></feMorphology><feComposite in2="SourceAlpha" operator="in"></feComposite></filter><path d="M692.84 0L282.53 430.33L465.5 488.74L170.61 800L894.59 469.79L633.2 386.35L980.37 91.78L692.84 0Z" id="f4mQNvXq0v" fill="white" fill-opacity="1" filter="url(#shadow13196062)"></path></g></g><g><g><use xlink:href="#albUkOBDR" opacity="1" fill-opacity="0" stroke="#000000" stroke-width="1" stroke-opacity="1"></use></g></g><g><g><use xlink:href="#b84UnaL9" opacity="1" fill-opacity="0" stroke="#f6e545" stroke-width="1" stroke-opacity="1"></use></g></g></g></g></svg>